PathFileType	4	(X/Y/Z)	Walk8.trc
DataRate	CameraRate	NumFrames	NumMarkers	Units	OrigDataRate	OrigDataStartFrame	OrigNumFrames
200.000000	200.000000	9	61	mm	200.000000	496	735
Frame#	Times		RCAR		LToe		LMT5		RWRR		LTB4		LMT1		LTB1		LTB3		RWRU		LLFC		RACR1		LUA1		LFA1		LElbow		STRN		LCAR		RFHD		RTH3		LACR1		LASI		LWRU		RTB2		RLFC		C7		LPSI		LWRR		RToe		RMT1		RMT5		LFHD		RPSI		LMFC		RMFC		CLAV		RTH2		RTB1		LTH3		RTB4		RTB3		LTH2		RCAL		LTH1		RASI		LTH4		RFA1		LTB2		RLMAL		RMMAL		LBHD		RBHD		RElbow		RUA1		RTH4		RBack		LMMAL		RTH1		LCAL		T10		LElbowM		LLMAL		RElbowM
			X1	Y1	Z1	X2	Y2	Z2	X3	Y3	Z3	X4	Y4	Z4	X5	Y5	Z5	X6	Y6	Z6	X7	Y7	Z7	X8	Y8	Z8	X9	Y9	Z9	X10	Y10	Z10	X11	Y11	Z11	X12	Y12	Z12	X13	Y13	Z13	X14	Y14	Z14	X15	Y15	Z15	X16	Y16	Z16	X17	Y17	Z17	X18	Y18	Z18	X19	Y19	Z19	X20	Y20	Z20	X21	Y21	Z21	X22	Y22	Z22	X23	Y23	Z23	X24	Y24	Z24	X25	Y25	Z25	X26	Y26	Z26	X27	Y27	Z27	X28	Y28	Z28	X29	Y29	Z29	X30	Y30	Z30	X31	Y31	Z31	X32	Y32	Z32	X33	Y33	Z33	X34	Y34	Z34	X35	Y35	Z35	X36	Y36	Z36	X37	Y37	Z37	X38	Y38	Z38	X39	Y39	Z39	X40	Y40	Z40	X41	Y41	Z41	X42	Y42	Z42	X43	Y43	Z43	X44	Y44	Z44	X45	Y45	Z45	X46	Y46	Z46	X47	Y47	Z47	X48	Y48	Z48	X49	Y49	Z49	X50	Y50	Z50	X51	Y51	Z51	X52	Y52	Z52	X53	Y53	Z53	X54	Y54	Z54	X55	Y55	Z55	X56	Y56	Z56	X57	Y57	Z57	X58	Y58	Z58	X59	Y59	Z59	X60	Y60	Z60	X61	Y61	Z61

496	2.48	76.395	808.29	381.75	-115.14	30.255	-36.692	-221.21	31.345	-105.2	22.488	852.81	373.17	-180.22	269.9	-15.933	-170.22	44.547	-18.689	-134.66	341.43	-20.944	-224.06	196.35	-11.69	92.301	846.08	317.78	-104.73	491.59	-125.41	80.844	1469.8	230.16	61.372	1322	-226.07	138.1	1030.2	-266.9	39.528	1150.8	-273.22	199.34	1273.7	27.724	205.39	877.85	-270.24	212.77	1676.4	125.95	145.27	628.89	217.1	63.705	1506.1	-143.21	114.2	1001.8	-131.8	128.28	898.17	-278.04	300.79	289.33	177.55	206.07	507.08	209.17	-31.265	1534.7	55.395	-97.588	1051.3	-23.207	195.31	915.3	-214.43	490.13	66.675	109.82	440.85	67.014	98.066	406.2	37.177	185.42	220.3	1685.2	21.294	-94.667	1041	84.792	-95.317	489.87	14.654	190.73	494.17	61.407	134.92	1445.1	27.935	160.77	730.19	239.29	283.24	376.76	121.68	-33.869	624.59	-150.2	294.3	290.48	116.73	305.85	205.63	112.39	40.07	699.54	-148.16	224.51	36.846	116.78	6.4309	790.74	-183.67	130.01	1019.1	185.77	-13.335	707.49	-167.79	59.931	991.83	346.01	-164.06	255.64	-74.911	279.74	72.997	158.53	304.14	107.05	66.706	55.953	1672.1	-11.472	41.722	1663.8	129.76	-7.4228	1131.3	333.14	47.914	1288.8	297.64	108.13	703.45	226.04	-88.216	1414.7	166.97	-287.9	117.64	28.357	69.141	783.44	236.27	-388.63	95.317	-29.249	-77.877	1178.4	27.903	2.2769	1120.6	-191.3	-318.53	101.21	-70.281	-36.006	1109.7	243.33
497	2.485	83.247	808.44	382.46	-115.2	30.257	-36.562	-220.66	32.151	-104.89	29.295	852.92	374	-175.84	270.78	-15.833	-170.09	44.483	-18.627	-129.17	341.58	-20.774	-220.81	197.89	-11.677	99.011	846.21	318.45	-97.064	491.35	-124.97	85.902	1470.3	231.24	66.592	1322.2	-224.99	142.33	1029.9	-265.87	44.391	1151	-271.78	205.05	1274.4	29.145	208.7	877.16	-269.65	218.33	1676.8	126.76	151.41	629.88	217.82	69.373	1506.4	-142.32	121.61	1002.2	-130.95	131.67	897.83	-277.07	304.22	289.01	177.93	212.1	507.95	209.84	-25.809	1535.1	56.21	-91.587	1051.4	-23.198	199.05	914.56	-213.75	490.84	64.069	109.44	441.51	65.053	97.85	406.53	35.751	185.76	225.83	1685.6	22.102	-88.947	1041.6	85.03	-87.826	489.47	14.72	196.4	495.17	62.165	140.46	1445.6	29.058	166.78	731.23	239.64	287.39	376.64	122.15	-26.296	624.1	-149.6	297.47	290.24	117.11	308.04	205.27	112.68	47.301	699.34	-147.1	224.79	37.366	117.15	13.471	790.44	-182.72	135.54	1020.1	187.2	-6.0515	707.12	-166.93	66.563	991.98	346.67	-159.87	256.32	-74.754	280.56	72.876	158.86	305.08	106.81	66.992	61.467	1672.5	-10.602	47.283	1664.3	130.62	-0.99092	1131.3	333.84	53.677	1289	298.49	114.06	704.34	226.64	-82.968	1414.9	167.68	-285.77	120.19	28.289	74.974	784.29	237.03	-386.79	99.857	-29.409	-72.288	1178.8	28.218	7.3506	1121	-189.7	-316.65	104.3	-70.372	-29.551	1109.6	244.01
498	2.49	90.146	808.73	383.19	-115.32	30.253	-36.438	-220.07	33.052	-104.56	36.141	853.18	374.83	-171.2	271.76	-15.76	-169.94	44.436	-18.556	-123.38	341.79	-20.652	-217.3	199.56	-11.691	105.78	846.51	319.15	-89.101	491.13	-124.56	90.956	1470.9	232.32	71.842	1322.5	-223.9	146.52	1029.6	-264.84	49.242	1151.4	-270.34	210.73	1275.2	30.567	211.93	876.59	-269.06	223.9	1677.3	127.58	157.39	630.87	218.61	75.081	1506.8	-141.39	128.95	1002.8	-130.09	134.98	897.64	-276.11	307.46	288.7	178.38	217.87	508.75	210.56	-20.355	1535.6	57.027	-85.608	1051.6	-23.198	202.71	913.94	-213.08	491.45	61.737	109.11	442.07	63.321	97.68	406.8	34.513	186.19	231.36	1686	22.917	-83.216	1042.2	85.269	-79.98	489.05	14.741	201.99	496.16	62.959	145.99	1446.2	30.195	172.65	732.27	240.05	291.39	376.53	122.7	-18.527	623.64	-149.04	300.5	290.02	117.55	310.11	204.94	113.03	54.671	699.22	-146.06	225.04	37.842	117.51	20.571	790.21	-181.77	141.06	1021.2	188.6	1.3626	706.81	-166.1	73.209	992.27	347.33	-155.46	257.11	-74.642	281.3	72.776	159.2	305.93	106.63	67.299	66.987	1673.1	-9.7253	52.85	1664.9	131.49	5.4255	1131.4	334.52	59.436	1289.3	299.34	119.83	705.23	227.28	-77.724	1415.2	168.38	-283.4	122.93	28.24	80.697	785.18	237.81	-384.68	104.71	-29.508	-66.712	1179.2	28.55	12.41	1121.5	-188.07	-314.57	107.61	-70.429	-23.07	1109.7	244.66
499	2.495	97.091	809.18	383.93	-115.48	30.24	-36.318	-219.44	34.053	-104.22	43.026	853.58	375.64	-166.26	272.85	-15.715	-169.78	44.413	-18.477	-117.29	342.06	-20.58	-213.51	201.35	-11.73	112.6	846.96	319.86	-80.846	490.93	-124.17	96.013	1471.5	233.4	77.123	1323	-222.79	150.67	1029.6	-263.82	54.082	1151.9	-268.91	216.38	1276.1	31.98	215.07	876.13	-268.48	229.48	1677.9	128.41	163.17	631.83	219.45	80.825	1507.4	-140.44	136.18	1003.6	-129.2	138.22	897.59	-275.15	310.5	288.37	178.88	223.35	509.46	211.34	-14.911	1536.1	57.847	-79.652	1051.9	-23.194	206.3	913.42	-212.41	491.97	59.659	108.81	442.55	61.803	97.534	407.02	33.459	186.68	236.89	1686.5	23.735	-77.473	1042.9	85.518	-71.766	488.6	14.72	207.47	497.12	63.784	151.52	1446.9	31.341	178.36	733.27	240.52	295.24	376.42	123.32	-10.568	623.2	-148.52	303.39	289.82	118.04	312.05	204.64	113.4	62.173	699.16	-145.06	225.26	38.272	117.85	27.726	790.03	-180.83	146.57	1022.3	189.97	8.9028	706.54	-165.29	79.862	992.72	348.01	-150.82	258	-74.578	281.95	72.694	159.54	306.69	106.49	67.61	72.51	1673.7	-8.8452	58.418	1665.6	132.36	11.817	1131.7	335.2	65.191	1289.8	300.19	125.43	706.12	227.98	-72.481	1415.6	169.08	-280.76	125.86	28.211	86.305	786.08	238.59	-382.3	109.87	-29.534	-61.146	1179.8	28.912	17.451	1122.3	-186.44	-312.28	111.15	-70.447	-16.571	1110	245.28
500	2.5	104.08	809.76	384.67	-115.67	30.211	-36.203	-218.77	35.162	-103.87	49.949	854.11	376.43	-161.03	274.03	-15.696	-169.58	44.422	-18.389	-110.86	342.38	-20.558	-209.43	203.27	-11.791	119.49	847.55	320.6	-72.299	490.74	-123.81	101.08	1472.4	234.48	82.438	1323.7	-221.66	154.78	1029.6	-262.8	58.912	1152.6	-267.48	221.98	1277	33.375	218.14	875.78	-267.91	235.05	1678.5	129.24	168.74	632.75	220.33	86.599	1508.1	-139.46	143.25	1004.4	-128.26	141.39	897.7	-274.2	313.36	288.04	179.42	228.51	510.08	212.16	-9.4804	1536.7	58.67	-73.721	1052.3	-23.17	209.82	913.02	-211.74	492.42	57.818	108.52	442.96	60.48	97.393	407.2	32.577	187.2	242.42	1687	24.554	-71.722	1043.6	85.782	-63.172	488.11	14.659	212.8	498.02	64.637	157.04	1447.6	32.491	183.91	734.21	241.06	298.92	376.31	123.98	-2.4266	622.78	-148.06	306.14	289.62	118.56	313.86	204.37	113.78	69.802	699.17	-144.11	225.46	38.655	118.18	34.929	789.91	-179.89	152.07	1023.5	191.28	16.564	706.32	-164.51	86.518	993.31	348.7	-145.93	259	-74.562	282.54	72.63	159.85	307.38	106.39	67.909	78.029	1674.3	-7.9631	63.983	1666.3	133.23	18.174	1132.1	335.86	70.941	1290.4	301.04	130.86	707	228.71	-67.236	1416.1	169.78	-277.84	128.97	28.206	91.794	786.99	239.39	-379.61	115.33	-29.478	-55.588	1180.4	29.313	22.472	1123.2	-184.82	-309.76	114.92	-70.419	-10.064	1110.4	245.88
501	2.505	111.12	810.47	385.42	-115.9	30.161	-36.092	-218.05	36.387	-103.52	56.906	854.76	377.21	-155.48	275.31	-15.704	-169.33	44.47	-18.292	-104.11	342.75	-20.586	-205.04	205.32	-11.87	126.43	848.29	321.35	-63.465	490.56	-123.47	106.15	1473.3	235.54	87.788	1324.4	-220.51	158.86	1029.8	-261.79	63.733	1153.4	-266.06	227.55	1278.1	34.744	221.14	875.54	-267.34	240.61	1679.2	130.06	174.06	633.61	221.23	92.393	1509	-138.46	150.13	1005.3	-127.28	144.5	897.95	-273.26	316.02	287.69	179.97	233.34	510.6	213.01	-4.0672	1537.4	59.499	-67.819	1052.8	-23.111	213.28	912.73	-211.08	492.81	56.19	108.22	443.3	59.336	97.242	407.34	31.853	187.72	247.95	1687.6	25.37	-65.967	1044.4	86.069	-54.192	487.57	14.562	217.95	498.85	65.508	162.54	1448.5	33.643	189.28	735.08	241.69	302.43	376.19	124.66	5.8901	622.39	-147.64	308.74	289.43	119.09	315.56	204.11	114.17	77.548	699.25	-143.22	225.65	38.992	118.48	42.176	789.84	-178.96	157.56	1024.6	192.54	24.34	706.14	-163.77	93.173	994.03	349.4	-140.77	260.11	-74.593	283.06	72.581	160.14	308	106.31	68.185	83.538	1675	-7.0807	69.542	1667.1	134.1	24.49	1132.6	336.53	76.686	1291.1	301.89	136.1	707.86	229.48	-61.986	1416.7	170.5	-274.61	132.27	28.227	97.162	787.91	240.18	-376.58	121.1	-29.329	-50.035	1181	29.763	27.471	1124.3	-183.2	-306.99	118.91	-70.342	-3.5581	1110.8	246.47
502	2.51	118.2	811.31	386.18	-116.14	30.079	-35.982	-217.28	37.735	-103.14	63.897	855.52	377.97	-149.6	276.67	-15.735	-169.01	44.566	-18.186	-97.016	343.17	-20.659	-200.32	207.48	-11.96	133.44	849.16	322.12	-54.35	490.39	-123.17	111.25	1474.3	236.6	93.172	1325.3	-219.35	162.91	1030.1	-260.79	68.546	1154.3	-264.67	233.07	1279.2	36.078	224.09	875.39	-266.77	246.16	1680	130.88	179.11	634.4	222.14	98.201	1509.9	-137.43	156.82	1006.2	-126.26	147.58	898.33	-272.34	318.5	287.33	180.52	237.84	511.03	213.87	1.3261	1538.2	60.334	-61.947	1053.3	-23.005	216.69	912.55	-210.42	493.16	54.752	107.91	443.6	58.354	97.076	407.47	31.272	188.22	253.45	1688.3	26.181	-60.212	1045.1	86.385	-44.819	486.98	14.437	222.88	499.61	66.39	168.03	1449.4	34.792	194.47	735.86	242.4	305.74	376.06	125.35	14.373	622.01	-147.29	311.19	289.24	119.62	317.14	203.87	114.54	85.405	699.37	-142.39	225.81	39.284	118.75	49.462	789.81	-178.04	163.05	1025.8	193.74	32.224	706	-163.07	99.823	994.87	350.13	-135.33	261.32	-74.67	283.52	72.545	160.4	308.55	106.25	68.429	89.033	1675.8	-6.1998	75.091	1668	134.98	30.76	1133.3	337.19	82.425	1291.9	302.74	141.15	708.69	230.27	-56.727	1417.3	171.22	-271.05	135.73	28.276	102.41	788.83	240.98	-373.18	127.14	-29.078	-44.486	1181.8	30.265	32.446	1125.5	-181.62	-303.96	123.12	-70.212	2.9371	1111.5	247.05
503	2.515	125.34	812.25	386.93	-116.37	29.957	-35.873	-216.45	39.217	-102.76	70.921	856.38	378.7	-143.38	278.12	-15.789	-168.61	44.721	-18.069	-89.576	343.63	-20.777	-195.27	209.76	-12.056	140.51	850.17	322.9	-44.961	490.23	-122.89	116.37	1475.3	237.64	98.59	1326.3	-218.18	166.94	1030.5	-259.82	73.355	1155.3	-263.3	238.55	1280.3	37.371	226.99	875.32	-266.2	251.7	1680.7	131.68	183.89	635.13	223.04	104.01	1510.9	-136.38	163.3	1007.2	-125.2	150.63	898.85	-271.45	320.8	286.97	181.07	242.01	511.36	214.75	6.6983	1539	61.177	-56.109	1053.8	-22.84	220.05	912.46	-209.77	493.48	53.48	107.58	443.86	57.516	96.893	407.57	30.814	188.7	258.95	1689	26.984	-54.463	1046	86.737	-35.051	486.32	14.288	227.56	500.3	67.269	173.49	1450.3	35.933	199.48	736.55	243.18	308.87	375.91	126.05	23.011	621.65	-146.98	313.49	289.05	120.15	318.6	203.64	114.89	93.366	699.56	-141.63	225.95	39.534	118.98	56.781	789.81	-177.13	168.53	1027	194.87	40.209	705.87	-162.41	106.47	995.82	350.88	-129.59	262.62	-74.791	283.93	72.522	160.61	309.05	106.19	68.637	94.508	1676.7	-5.3222	80.627	1668.9	135.85	36.981	1134	337.87	88.158	1292.7	303.6	146.01	709.49	231.07	-51.455	1417.9	171.96	-267.14	139.34	28.353	107.54	789.75	241.77	-369.4	133.45	-28.715	-38.943	1182.5	30.823	37.397	1126.8	-180.07	-300.63	127.53	-70.023	9.4136	1112.2	247.65
504	2.52	132.52	813.3	387.68	-116.57	29.785	-35.764	-215.53	40.838	-102.36	77.978	857.31	379.4	-136.81	279.64	-15.863	-168.1	44.942	-17.943	-81.789	344.12	-20.936	-189.87	212.16	-12.152	147.64	851.28	323.69	-35.31	490.07	-122.64	121.51	1476.4	238.66	104.04	1327.3	-217.01	170.95	1031	-258.87	78.162	1156.4	-261.96	243.99	1281.4	38.616	229.86	875.33	-265.62	257.22	1681.5	132.48	188.4	635.78	223.93	109.82	1512	-135.31	169.6	1008.2	-124.13	153.66	899.49	-270.59	322.92	286.6	181.61	245.85	511.61	215.62	12.049	1539.8	62.029	-50.309	1054.4	-22.609	223.38	912.46	-209.12	493.76	52.353	107.25	444.08	56.808	96.696	407.66	30.462	189.14	264.41	1689.7	27.775	-48.724	1046.8	87.132	-24.891	485.59	14.123	231.98	500.91	68.135	178.93	1451.3	37.063	204.3	737.14	244.05	311.81	375.76	126.73	31.794	621.29	-146.74	315.65	288.85	120.65	319.96	203.42	115.23	101.42	699.78	-140.94	226.08	39.745	119.19	64.129	789.85	-176.22	174.01	1028.2	195.95	48.286	705.77	-161.78	113.1	996.86	351.65	-123.55	264.02	-74.953	284.3	72.506	160.79	309.49	106.14	68.808	99.958	1677.6	-4.4495	86.147	1669.9	136.72	43.153	1134.8	338.57	93.886	1293.7	304.47	150.68	710.26	231.87	-46.166	1418.6	172.73	-262.86	143.08	28.46	112.54	790.67	242.55	-365.19	139.99	-28.233	-33.405	1183.3	31.436	42.324	1128.2	-178.56	-296.99	132.13	-69.775	15.864	1112.9	248.25
